<svg xmlns="http://www.w3.org/2000/svg" xmlns:xlink="http://www.w3.org/1999/xlink" width="145.512" height="1.535" viewBox="0 0 145.512 1.535">
  <defs>
    <linearGradient id="linear-gradient" y1="0.5" x2="1" y2="0.5" gradientUnits="objectBoundingBox">
      <stop offset="0.001" stop-color="#c2b18c"/>
      <stop offset="1" stop-color="#a37e4e"/>
    </linearGradient>
  </defs>
  <path id="Path_101" data-name="Path 101" d="M236.44,158.323c12.126-.317,24.252-.484,36.378-.6,6.063-.071,12.126-.086,18.189-.128l18.189-.043,18.189.04c6.063.044,12.126.057,18.189.128,12.126.113,24.252.28,36.378.6-12.126.32-24.252.487-36.378.6-6.063.072-12.126.085-18.189.129l-18.189.04-18.189-.043c-6.063-.041-12.126-.057-18.189-.129C260.692,158.808,248.566,158.641,236.44,158.323Z" transform="translate(-236.44 -157.556)" fill="url(#linear-gradient)"/>
</svg>
